<svg width="411" height="90" viewBox="0 0 411 90" fill="none" xmlns="http://www.w3.org/2000/svg">
<path d="M67.3033 17.16C67.2499 17.6133 67.1833 18.0133 67.1033 18.36C67.0499 18.7067 66.9299 19.04 66.7433 19.36C66.5833 19.6533 66.3433 19.9733 66.0233 20.32C65.7299 20.6667 65.3299 21.0667 64.8233 21.52C64.3433 21.9733 63.8899 22.3067 63.4633 22.52C63.0633 22.7333 62.6366 22.92 62.1833 23.08C61.7566 23.2133 61.2766 23.36 60.7433 23.52C60.2099 23.6533 59.5566 23.8667 58.7833 24.16C58.3566 24.32 57.9699 24.4533 57.6233 24.56C57.2766 24.64 56.9566 24.6667 56.6633 24.64H56.4633C56.4633 25.4933 56.4766 26.2 56.5033 26.76C56.5566 27.32 56.5966 27.8133 56.6233 28.24C56.6766 28.6667 56.7166 29.08 56.7433 29.48C56.7966 29.8533 56.8233 30.28 56.8233 30.76C56.8233 31 56.8233 31.2667 56.8233 31.56C56.8233 31.8533 56.7833 32.12 56.7033 32.36C56.6499 32.6267 56.5299 32.84 56.3433 33C56.1566 33.16 55.8766 33.24 55.5033 33.24C55.1033 33.24 54.8099 33.1467 54.6233 32.96C54.4366 32.7733 54.3033 32.52 54.2233 32.2C54.1433 31.9067 54.1033 31.5467 54.1033 31.12C54.1033 30.72 54.0766 30.2933 54.0233 29.84V29.88C53.9966 29.5333 53.9699 29.1067 53.9433 28.6C53.9166 28.1467 53.8899 27.6 53.8633 26.96C53.8366 26.32 53.7966 25.56 53.7433 24.68V24.48C53.7433 24.3467 53.7299 24.1467 53.7033 23.88C53.6766 23.5867 53.6499 23.2933 53.6233 23C53.6233 22.7067 53.6099 22.4267 53.5833 22.16C53.5566 21.8933 53.5433 21.6933 53.5433 21.56V21.64C53.5166 21.64 53.5299 21.2667 53.5833 20.52C53.6366 19.7467 53.6633 18.5867 53.6633 17.04C53.6633 16.5333 53.6499 16.08 53.6233 15.68C53.5966 15.2533 53.5433 14.88 53.4633 14.56C53.4633 14.5067 53.4633 14.44 53.4633 14.36C53.4899 14.28 53.5033 14.1733 53.5033 14.04C53.5033 13.88 53.4899 13.7067 53.4633 13.52C53.4633 13.3067 53.4633 13.08 53.4633 12.84C53.4633 12.3867 53.5166 12.04 53.6233 11.8C53.7566 11.5333 53.9299 11.3467 54.1433 11.24C54.3833 11.1067 54.6633 11.0267 54.9833 11C55.3033 10.9733 55.6633 10.96 56.0633 10.96H56.4633C57.8766 10.5867 59.0499 10.4 59.9833 10.4C60.1966 10.4 60.5566 10.44 61.0633 10.52C61.5966 10.6 62.2899 10.7067 63.1433 10.84C63.8633 11.16 64.4766 11.4667 64.9833 11.76C65.5166 12.0533 65.9433 12.4267 66.2633 12.88C66.6099 13.3067 66.8633 13.8667 67.0233 14.56C67.2099 15.2267 67.3033 16.0933 67.3033 17.16ZM64.4233 17.88C64.4766 17.6133 64.5033 17.36 64.5033 17.12C64.5033 16.88 64.5033 16.6533 64.5033 16.44C64.5033 15.4533 64.2766 14.72 63.8233 14.24C63.3966 13.76 62.5833 13.3333 61.3833 12.96C60.8499 12.8267 60.3566 12.76 59.9033 12.76C59.9566 12.76 59.7966 12.7867 59.4233 12.84C59.0499 12.8667 58.6233 12.92 58.1433 13C57.6899 13.08 57.2633 13.2 56.8633 13.36C56.4633 13.52 56.2633 13.72 56.2633 13.96C56.2633 14.8667 56.2899 15.72 56.3433 16.52C56.4233 17.32 56.4633 17.92 56.4633 18.32C56.4366 18.3733 56.4233 19.6 56.4233 22H56.7433C57.2233 22 57.7433 21.92 58.3033 21.76C58.8899 21.5733 59.4633 21.3733 60.0233 21.16C62.3699 20.6267 63.8366 19.5333 64.4233 17.88ZM85.8402 29.4C84.9868 30.2533 83.9868 30.9867 82.8402 31.6C81.6935 32.2133 80.5202 32.52 79.3202 32.52C78.8135 32.52 77.6535 32.3333 75.8402 31.96C75.3602 31.64 74.8535 31.24 74.3202 30.76C73.7868 30.28 73.2935 29.7333 72.8402 29.12C72.4135 28.48 72.0535 27.8133 71.7602 27.12C71.4935 26.4 71.3602 25.6533 71.3602 24.88V24.92C71.3868 24.68 71.4135 24.4 71.4402 24.08C71.4668 23.7867 71.4935 23.4533 71.5202 23.08C71.5468 22.68 71.5868 22.2133 71.6402 21.68C72.1735 20.8267 72.7202 19.9867 73.2802 19.16C73.8668 18.3333 74.7202 17.6 75.8402 16.96C77.5468 16.56 78.8268 16.36 79.6802 16.36C80.0802 16.36 80.4268 16.3867 80.7202 16.44C81.0402 16.4667 81.3335 16.56 81.6002 16.72C81.8935 16.8533 82.1735 17.04 82.4402 17.28C82.7335 17.52 83.0802 17.84 83.4802 18.24C83.7735 18.56 84.0002 18.8 84.1602 18.96C84.3202 19.0933 84.4402 19.2 84.5202 19.28C84.6002 19.36 84.6402 19.4267 84.6402 19.48C84.6402 19.5333 84.6402 19.6133 84.6402 19.72C84.6402 20.68 84.5335 21.4533 84.3202 22.04C84.1335 22.6267 83.7602 23.1067 83.2002 23.48C82.6668 23.8533 81.9202 24.1867 80.9602 24.48C80.0002 24.7467 78.7602 25.0533 77.2402 25.4H77.0002C76.5202 25.4 75.6668 25.5067 74.4402 25.72C75.4002 28.5467 76.9335 29.96 79.0402 29.96C80.5335 29.96 82.2268 29.2 84.1202 27.68C84.3068 27.52 84.5468 27.44 84.8402 27.44C85.6668 27.44 86.0802 27.84 86.0802 28.64C86.0802 28.9067 86.0002 29.16 85.8402 29.4ZM82.0002 20.44C81.2802 19.24 80.4668 18.64 79.5602 18.64C79.1602 18.64 78.7335 18.6933 78.2802 18.8C77.8268 18.9067 77.3868 19.0533 76.9602 19.24C76.5602 19.4267 76.1735 19.6533 75.8002 19.92C75.4535 20.1867 75.1602 20.4933 74.9202 20.84C74.8135 21.0533 74.7068 21.36 74.6002 21.76C74.5202 22.16 74.4135 22.64 74.2802 23.2C75.0002 23.0667 75.7868 22.9733 76.6402 22.92C77.5202 22.8667 78.3468 22.76 79.1202 22.6C79.9202 22.44 80.5868 22.2 81.1202 21.88C81.6535 21.56 81.9468 21.08 82.0002 20.44ZM105.222 17.36C105.302 17.7333 105.342 18.2 105.342 18.76C105.342 19.6933 105.222 20.92 104.982 22.44C105.008 22.5467 105.022 22.76 105.022 23.08C105.022 23.3733 104.995 23.72 104.942 24.12C104.915 24.52 104.875 24.9867 104.822 25.52C104.848 25.6533 104.862 25.8 104.862 25.96C104.862 26.0933 104.862 26.2533 104.862 26.44C104.862 27.08 104.822 27.88 104.742 28.84C104.662 29.8 104.555 30.92 104.422 32.2C104.048 35.2133 102.808 37.44 100.702 38.88C99.1284 39.44 97.5017 39.72 95.8217 39.72C95.1017 39.72 94.2751 39.5733 93.3417 39.28L91.2217 38.44L89.2617 36.88C88.8884 36.5867 88.6217 36.3467 88.4617 36.16C88.3017 36 88.2217 35.8267 88.2217 35.64C88.2217 35.1867 88.3417 34.8133 88.5817 34.52C88.8484 34.2267 89.1684 34.08 89.5417 34.08C89.8351 34.08 90.1284 34.16 90.4217 34.32L92.7017 36.16C93.7417 36.8267 94.9684 37.1867 96.3817 37.24C96.5951 37.24 97.1017 37.1333 97.9017 36.92L99.3417 36.56C99.9017 36.24 100.422 35.68 100.902 34.88C101.382 34.1067 101.675 33.28 101.782 32.4V32.2C101.755 32.0133 101.768 31.7467 101.822 31.4C101.875 31.08 101.928 30.6667 101.982 30.16L102.262 27.4C102.208 27.4267 102.008 27.56 101.662 27.8C101.342 28.0133 100.875 28.2533 100.262 28.52C99.6484 28.7867 98.9017 29.0267 98.0217 29.24C97.1417 29.4533 96.1551 29.56 95.0617 29.56C94.7684 29.56 94.4084 29.4133 93.9817 29.12C93.5551 28.8 92.9151 28.28 92.0617 27.56L91.1017 25.8C90.8617 25.3733 90.6884 24.9333 90.5817 24.48C90.5017 24 90.4617 23.5333 90.4617 23.08C90.4617 22.3867 90.7551 21.68 91.3417 20.96C91.9284 20.24 92.6484 19.5867 93.5017 19C94.3551 18.4133 95.2751 17.9333 96.2617 17.56C97.2751 17.1867 98.2084 17 99.0617 17C99.4351 17 99.9684 17.0267 100.662 17.08C101.355 17.1333 102.008 17.3733 102.622 17.8C102.622 17.72 102.635 17.6133 102.662 17.48C102.715 17.3467 102.782 17.2133 102.862 17.08C102.942 16.9467 103.062 16.84 103.222 16.76C103.408 16.6533 103.648 16.6 103.942 16.6C104.688 16.6 105.115 16.8533 105.222 17.36ZM102.342 20.48C101.995 20.16 101.582 19.9467 101.102 19.84C100.622 19.7067 100.168 19.5867 99.7417 19.48C98.9951 19.56 97.9284 19.7867 96.5417 20.16C94.4351 21.36 93.3817 22.52 93.3817 23.64C93.3817 23.8267 93.4484 24.08 93.5817 24.4C93.7417 24.6933 93.9284 25.0133 94.1417 25.36C94.3817 25.68 94.6351 25.9867 94.9017 26.28C95.1951 26.5733 95.4884 26.8 95.7817 26.96C96.8751 26.96 98.2084 26.64 99.7817 26C100.528 25.8667 101.315 25.2 102.142 24C102.195 23.4667 102.235 22.9467 102.262 22.44C102.315 21.9333 102.342 21.4533 102.342 21V20.48ZM124.778 16.36C124.805 16.6533 124.818 16.9333 124.818 17.2C124.845 17.4667 124.858 17.7467 124.858 18.04C124.858 18.68 124.831 19.2267 124.778 19.68C124.725 20.1067 124.658 20.6 124.578 21.16C124.498 21.6933 124.391 22.36 124.258 23.16C124.151 23.9333 124.045 24.9733 123.938 26.28C123.938 26.36 123.925 26.44 123.898 26.52C123.898 26.5733 123.898 26.64 123.898 26.72C123.898 27.1467 123.938 27.6133 124.018 28.12L124.178 29.6C124.178 30.2933 123.738 30.64 122.858 30.64C122.485 30.64 122.205 30.5467 122.018 30.36C121.831 30.1467 121.698 29.9067 121.618 29.64C121.538 29.3467 121.498 29.0533 121.498 28.76C121.498 28.44 121.498 28.1733 121.498 27.96C121.498 27.6933 121.511 27.4933 121.538 27.36C120.898 28 120.325 28.5067 119.818 28.88C119.338 29.2267 118.885 29.48 118.458 29.64C118.058 29.8 117.658 29.8933 117.258 29.92C116.885 29.9467 116.485 29.96 116.058 29.96C114.618 29.96 113.511 29.56 112.738 28.76C111.991 27.96 111.618 26.7733 111.618 25.2C111.618 25.0133 111.618 24.8 111.618 24.56C111.618 24.32 111.631 24.04 111.658 23.72C111.631 23.6133 111.618 23.44 111.618 23.2C111.618 22.8533 111.631 22.5333 111.658 22.24C111.685 21.92 111.738 21.5467 111.818 21.12C111.925 20.6667 112.058 20.12 112.218 19.48C112.405 18.8133 112.645 17.96 112.938 16.92C113.231 16.6267 113.565 16.48 113.938 16.48C114.285 16.48 114.578 16.5733 114.818 16.76C115.058 16.9467 115.178 17.2267 115.178 17.6C115.178 17.7333 115.125 18.0133 115.018 18.44C114.938 18.8667 114.845 19.3333 114.738 19.84C114.631 20.3467 114.525 20.8533 114.418 21.36C114.338 21.84 114.298 22.2133 114.298 22.48V22.68C114.245 23.0533 114.191 23.4 114.138 23.72C114.111 24.04 114.098 24.3067 114.098 24.52C114.098 25.3467 114.258 26.0667 114.578 26.68C114.925 27.2667 115.565 27.56 116.498 27.56C117.111 27.56 117.685 27.4267 118.218 27.16C118.751 26.8933 119.231 26.5733 119.658 26.2C120.085 25.8 120.458 25.3733 120.778 24.92C121.098 24.44 121.338 24 121.498 23.6C121.551 23.0933 121.645 22.4933 121.778 21.8C121.911 21.08 122.085 20.2533 122.298 19.32C122.271 19.16 122.258 19 122.258 18.84C122.258 18.68 122.258 18.5333 122.258 18.4C122.258 18.08 122.271 17.76 122.298 17.44C122.351 17.0933 122.418 16.8 122.498 16.56C122.605 16.2933 122.751 16.08 122.938 15.92C123.125 15.7333 123.378 15.64 123.698 15.64C124.285 15.64 124.645 15.88 124.778 16.36ZM144.668 29.4C143.815 30.2533 142.815 30.9867 141.668 31.6C140.522 32.2133 139.348 32.52 138.148 32.52C137.642 32.52 136.482 32.3333 134.668 31.96C134.188 31.64 133.682 31.24 133.148 30.76C132.615 30.28 132.122 29.7333 131.668 29.12C131.242 28.48 130.882 27.8133 130.588 27.12C130.322 26.4 130.188 25.6533 130.188 24.88V24.92C130.215 24.68 130.242 24.4 130.268 24.08C130.295 23.7867 130.322 23.4533 130.348 23.08C130.375 22.68 130.415 22.2133 130.468 21.68C131.002 20.8267 131.548 19.9867 132.108 19.16C132.695 18.3333 133.548 17.6 134.668 16.96C136.375 16.56 137.655 16.36 138.508 16.36C138.908 16.36 139.255 16.3867 139.548 16.44C139.868 16.4667 140.162 16.56 140.428 16.72C140.722 16.8533 141.002 17.04 141.268 17.28C141.562 17.52 141.908 17.84 142.308 18.24C142.602 18.56 142.828 18.8 142.988 18.96C143.148 19.0933 143.268 19.2 143.348 19.28C143.428 19.36 143.468 19.4267 143.468 19.48C143.468 19.5333 143.468 19.6133 143.468 19.72C143.468 20.68 143.362 21.4533 143.148 22.04C142.962 22.6267 142.588 23.1067 142.028 23.48C141.495 23.8533 140.748 24.1867 139.788 24.48C138.828 24.7467 137.588 25.0533 136.068 25.4H135.828C135.348 25.4 134.495 25.5067 133.268 25.72C134.228 28.5467 135.762 29.96 137.868 29.96C139.362 29.96 141.055 29.2 142.948 27.68C143.135 27.52 143.375 27.44 143.668 27.44C144.495 27.44 144.908 27.84 144.908 28.64C144.908 28.9067 144.828 29.16 144.668 29.4ZM140.828 20.44C140.108 19.24 139.295 18.64 138.388 18.64C137.988 18.64 137.562 18.6933 137.108 18.8C136.655 18.9067 136.215 19.0533 135.788 19.24C135.388 19.4267 135.002 19.6533 134.628 19.92C134.282 20.1867 133.988 20.4933 133.748 20.84C133.642 21.0533 133.535 21.36 133.428 21.76C133.348 22.16 133.242 22.64 133.108 23.2C133.828 23.0667 134.615 22.9733 135.468 22.92C136.348 22.8667 137.175 22.76 137.948 22.6C138.748 22.44 139.415 22.2 139.948 21.88C140.482 21.56 140.775 21.08 140.828 20.44ZM177.247 26.64C177.167 27.4133 176.887 28.1467 176.407 28.84L174.967 30.88C174.727 31.0933 174.353 31.2667 173.847 31.4C173.34 31.56 172.82 31.68 172.287 31.76C171.78 31.8667 171.313 31.9467 170.887 32C170.487 32.0533 170.273 32.08 170.247 32.08C169.98 32.08 169.633 32.0267 169.207 31.92C168.807 31.84 168.407 31.7467 168.007 31.64C167.607 31.5333 167.26 31.4267 166.967 31.32C166.673 31.24 166.513 31.2 166.487 31.2H166.447C166.153 31.1733 165.833 31.1067 165.487 31C165.167 30.8933 164.847 30.76 164.527 30.6C164.233 30.44 163.993 30.2667 163.807 30.08C163.593 29.8667 163.487 29.64 163.487 29.4C163.487 29.1067 163.633 28.8133 163.927 28.52C164.22 28.2 164.513 28.04 164.807 28.04C167.5 29.1067 169.647 29.64 171.247 29.64C171.833 29.64 172.327 29.52 172.727 29.28C173.153 29.04 173.473 28.7867 173.687 28.52L174.527 27C174.527 26.6533 174.42 26.3067 174.207 25.96C174.02 25.6133 173.753 25.3067 173.407 25.04C173.087 24.7467 172.713 24.4933 172.287 24.28C171.86 24.0667 171.42 23.92 170.967 23.84C170.46 23.76 169.94 23.6133 169.407 23.4C168.9 23.1867 168.42 22.9333 167.967 22.64C167.54 22.3467 167.18 22.0267 166.887 21.68C166.62 21.3067 166.473 20.9067 166.447 20.48C166.42 20.48 166.393 19.9733 166.367 18.96C166.42 18.56 166.473 18.24 166.527 18C166.58 17.76 166.7 17.5467 166.887 17.36C167.073 17.1467 167.353 16.92 167.727 16.68C168.127 16.44 168.687 16.0933 169.407 15.64C169.62 15.6133 170.007 15.5867 170.567 15.56C171.153 15.5067 171.94 15.4267 172.927 15.32C173.353 15.32 174.447 15.64 176.207 16.28C176.473 16.52 176.607 16.88 176.607 17.36C176.607 18.1867 176.327 18.6 175.767 18.6C175.74 18.6 175.713 18.6 175.687 18.6C175.66 18.5733 175.62 18.56 175.567 18.56L174.127 18.08C173.407 17.8667 172.793 17.76 172.287 17.76C171.54 17.76 170.94 17.8 170.487 17.88C170.06 17.96 169.74 18.0667 169.527 18.2C169.313 18.3067 169.167 18.4267 169.087 18.56C169.007 18.6933 168.953 18.8133 168.927 18.92C168.927 19 168.913 19.08 168.887 19.16C168.887 19.2133 168.887 19.28 168.887 19.36C168.887 20.4 169.313 21.04 170.167 21.28C174.38 22.1333 176.74 23.92 177.247 26.64ZM196.309 29.4C195.456 30.2533 194.456 30.9867 193.309 31.6C192.162 32.2133 190.989 32.52 189.789 32.52C189.282 32.52 188.122 32.3333 186.309 31.96C185.829 31.64 185.322 31.24 184.789 30.76C184.256 30.28 183.762 29.7333 183.309 29.12C182.882 28.48 182.522 27.8133 182.229 27.12C181.962 26.4 181.829 25.6533 181.829 24.88V24.92C181.856 24.68 181.882 24.4 181.909 24.08C181.936 23.7867 181.962 23.4533 181.989 23.08C182.016 22.68 182.056 22.2133 182.109 21.68C182.642 20.8267 183.189 19.9867 183.749 19.16C184.336 18.3333 185.189 17.6 186.309 16.96C188.016 16.56 189.296 16.36 190.149 16.36C190.549 16.36 190.896 16.3867 191.189 16.44C191.509 16.4667 191.802 16.56 192.069 16.72C192.362 16.8533 192.642 17.04 192.909 17.28C193.202 17.52 193.549 17.84 193.949 18.24C194.242 18.56 194.469 18.8 194.629 18.96C194.789 19.0933 194.909 19.2 194.989 19.28C195.069 19.36 195.109 19.4267 195.109 19.48C195.109 19.5333 195.109 19.6133 195.109 19.72C195.109 20.68 195.002 21.4533 194.789 22.04C194.602 22.6267 194.229 23.1067 193.669 23.48C193.136 23.8533 192.389 24.1867 191.429 24.48C190.469 24.7467 189.229 25.0533 187.709 25.4H187.469C186.989 25.4 186.136 25.5067 184.909 25.72C185.869 28.5467 187.402 29.96 189.509 29.96C191.002 29.96 192.696 29.2 194.589 27.68C194.776 27.52 195.016 27.44 195.309 27.44C196.136 27.44 196.549 27.84 196.549 28.64C196.549 28.9067 196.469 29.16 196.309 29.4ZM192.469 20.44C191.749 19.24 190.936 18.64 190.029 18.64C189.629 18.64 189.202 18.6933 188.749 18.8C188.296 18.9067 187.856 19.0533 187.429 19.24C187.029 19.4267 186.642 19.6533 186.269 19.92C185.922 20.1867 185.629 20.4933 185.389 20.84C185.282 21.0533 185.176 21.36 185.069 21.76C184.989 22.16 184.882 22.64 184.749 23.2C185.469 23.0667 186.256 22.9733 187.109 22.92C187.989 22.8667 188.816 22.76 189.589 22.6C190.389 22.44 191.056 22.2 191.589 21.88C192.122 21.56 192.416 21.08 192.469 20.44ZM215.09 16.36C215.117 16.6533 215.13 16.9333 215.13 17.2C215.157 17.4667 215.17 17.7467 215.17 18.04C215.17 18.68 215.144 19.2267 215.09 19.68C215.037 20.1067 214.97 20.6 214.89 21.16C214.81 21.6933 214.704 22.36 214.57 23.16C214.464 23.9333 214.357 24.9733 214.25 26.28C214.25 26.36 214.237 26.44 214.21 26.52C214.21 26.5733 214.21 26.64 214.21 26.72C214.21 27.1467 214.25 27.6133 214.33 28.12L214.49 29.6C214.49 30.2933 214.05 30.64 213.17 30.64C212.797 30.64 212.517 30.5467 212.33 30.36C212.144 30.1467 212.01 29.9067 211.93 29.64C211.85 29.3467 211.81 29.0533 211.81 28.76C211.81 28.44 211.81 28.1733 211.81 27.96C211.81 27.6933 211.824 27.4933 211.85 27.36C211.21 28 210.637 28.5067 210.13 28.88C209.65 29.2267 209.197 29.48 208.77 29.64C208.37 29.8 207.97 29.8933 207.57 29.92C207.197 29.9467 206.797 29.96 206.37 29.96C204.93 29.96 203.824 29.56 203.05 28.76C202.304 27.96 201.93 26.7733 201.93 25.2C201.93 25.0133 201.93 24.8 201.93 24.56C201.93 24.32 201.944 24.04 201.97 23.72C201.944 23.6133 201.93 23.44 201.93 23.2C201.93 22.8533 201.944 22.5333 201.97 22.24C201.997 21.92 202.05 21.5467 202.13 21.12C202.237 20.6667 202.37 20.12 202.53 19.48C202.717 18.8133 202.957 17.96 203.25 16.92C203.544 16.6267 203.877 16.48 204.25 16.48C204.597 16.48 204.89 16.5733 205.13 16.76C205.37 16.9467 205.49 17.2267 205.49 17.6C205.49 17.7333 205.437 18.0133 205.33 18.44C205.25 18.8667 205.157 19.3333 205.05 19.84C204.944 20.3467 204.837 20.8533 204.73 21.36C204.65 21.84 204.61 22.2133 204.61 22.48V22.68C204.557 23.0533 204.504 23.4 204.45 23.72C204.424 24.04 204.41 24.3067 204.41 24.52C204.41 25.3467 204.57 26.0667 204.89 26.68C205.237 27.2667 205.877 27.56 206.81 27.56C207.424 27.56 207.997 27.4267 208.53 27.16C209.064 26.8933 209.544 26.5733 209.97 26.2C210.397 25.8 210.77 25.3733 211.09 24.92C211.41 24.44 211.65 24 211.81 23.6C211.864 23.0933 211.957 22.4933 212.09 21.8C212.224 21.08 212.397 20.2533 212.61 19.32C212.584 19.16 212.57 19 212.57 18.84C212.57 18.68 212.57 18.5333 212.57 18.4C212.57 18.08 212.584 17.76 212.61 17.44C212.664 17.0933 212.73 16.8 212.81 16.56C212.917 16.2933 213.064 16.08 213.25 15.92C213.437 15.7333 213.69 15.64 214.01 15.64C214.597 15.64 214.957 15.88 215.09 16.36ZM250.658 27.28C250.124 28.3733 249.324 29.2133 248.258 29.8C247.218 30.36 245.911 30.64 244.338 30.64C243.991 30.64 243.431 30.5733 242.658 30.44C241.884 30.3067 241.098 30.0267 240.298 29.6C239.498 29.1467 238.791 28.5333 238.178 27.76C237.591 26.96 237.298 25.8933 237.298 24.56C237.298 23.3867 237.471 22.2667 237.818 21.2C238.164 20.1067 238.764 19.0667 239.618 18.08C240.178 17.44 240.671 16.92 241.098 16.52C241.524 16.0933 241.938 15.7733 242.338 15.56C242.764 15.3467 243.218 15.2 243.698 15.12C244.204 15.04 244.818 15 245.538 15C246.338 15 246.964 15.0533 247.418 15.16C247.871 15.24 248.218 15.36 248.458 15.52C248.698 15.6533 248.844 15.8267 248.898 16.04C248.978 16.2267 249.018 16.44 249.018 16.68C249.018 17.5867 248.484 18.04 247.418 18.04C247.444 18.04 247.378 18.0267 247.218 18C247.058 17.9467 246.858 17.8933 246.618 17.84C246.378 17.76 246.124 17.7067 245.858 17.68C245.591 17.6267 245.351 17.6 245.138 17.6C244.364 17.6 243.511 17.9733 242.578 18.72C241.671 19.44 240.951 20.5733 240.418 22.12C240.258 22.5733 240.138 22.9867 240.058 23.36C240.004 23.7067 239.978 24 239.978 24.24C239.978 25.0933 240.204 25.7867 240.658 26.32C241.138 26.8267 241.671 27.2267 242.258 27.52C242.871 27.7867 243.444 27.9733 243.978 28.08C244.511 28.16 244.844 28.2 244.978 28.2C245.431 28.2 245.871 28.08 246.298 27.84C246.751 27.6 247.151 27.3467 247.498 27.08C247.844 26.7867 248.124 26.52 248.338 26.28C248.578 26.04 248.698 25.92 248.698 25.92C248.911 25.7333 249.151 25.64 249.418 25.64C249.764 25.64 250.058 25.8 250.298 26.12C250.538 26.44 250.658 26.76 250.658 27.08V27.28ZM269.448 27C269.821 27.24 270.008 27.5333 270.008 27.88C270.008 28.2533 269.821 28.6133 269.448 28.96C269.075 29.3067 268.715 29.48 268.368 29.48C267.541 29.1867 266.821 28.64 266.208 27.84C265.621 27.04 265.221 26.1733 265.008 25.24C264.821 25.64 264.595 26.1467 264.328 26.76C264.088 27.3467 263.768 27.9067 263.368 28.44C262.968 28.9733 262.475 29.44 261.888 29.84C261.301 30.2133 260.568 30.4 259.688 30.4C259.235 30.4 258.635 30.32 257.888 30.16C257.061 29.5733 256.408 29.1067 255.928 28.76C255.475 28.3867 255.128 28.04 254.888 27.72C254.648 27.4 254.501 27.04 254.448 26.64C254.395 26.24 254.368 25.7067 254.368 25.04C254.368 24.48 254.448 23.8667 254.608 23.2C254.795 22.5067 255.048 21.8133 255.368 21.12C255.688 20.4267 256.088 19.7467 256.568 19.08C257.048 18.4133 257.608 17.8 258.248 17.24C259.421 16.84 260.341 16.5467 261.008 16.36C261.675 16.1733 262.128 16.08 262.368 16.08C262.901 15.4667 263.461 15.16 264.048 15.16C264.368 15.16 264.648 15.3467 264.888 15.72C265.128 16.0933 265.341 16.5867 265.528 17.2C265.741 17.7867 265.901 18.44 266.008 19.16C266.141 19.88 266.248 20.5733 266.328 21.24C266.408 21.3733 266.475 21.5333 266.528 21.72C266.581 21.88 266.635 22.0933 266.688 22.36L266.928 23.48C267.088 24.2533 267.395 24.92 267.848 25.48C268.301 26.04 268.835 26.5467 269.448 27ZM263.808 21.72C263.755 21.48 263.661 21.08 263.528 20.52C263.395 19.96 263.221 19.24 263.008 18.36C262.688 18.44 262.341 18.48 261.968 18.48C261.595 18.4533 261.195 18.52 260.768 18.68C260.341 18.84 259.875 19.1333 259.368 19.56C258.888 19.9867 258.395 20.6533 257.888 21.56C257.248 22.7333 256.928 23.9733 256.928 25.28C257.088 25.6267 257.235 25.9333 257.368 26.2C257.501 26.44 257.661 26.6667 257.848 26.88C258.061 27.0667 258.315 27.2533 258.608 27.44C258.901 27.6267 259.275 27.8267 259.728 28.04C260.128 27.96 260.461 27.8667 260.728 27.76C261.021 27.6533 261.275 27.4933 261.488 27.28C261.701 27.04 261.901 26.7467 262.088 26.4C262.275 26.0533 262.501 25.6 262.768 25.04C263.461 23.4933 263.808 22.3867 263.808 21.72ZM283.001 17.92L280.801 18.08C280.614 18.08 280.281 18.1333 279.801 18.24C279.347 18.32 278.947 18.36 278.601 18.36C278.627 18.84 278.667 19.44 278.721 20.16C278.801 20.88 278.867 21.6133 278.921 22.36C279.001 23.1067 279.081 23.8 279.161 24.44C279.241 25.08 279.307 25.5733 279.361 25.92C279.334 26.0533 279.307 26.2267 279.281 26.44C279.281 26.6533 279.281 26.9067 279.281 27.2C279.281 27.9733 279.321 29 279.401 30.28C279.027 30.84 278.507 31.12 277.841 31.12C277.227 31.12 276.801 30.84 276.561 30.28C276.561 30.04 276.561 29.7733 276.561 29.48C276.587 29.16 276.601 28.8133 276.601 28.44C276.601 28.0667 276.587 27.6533 276.561 27.2C276.561 26.72 276.561 26.2133 276.561 25.68V25.44C276.561 25.0667 276.521 24.6133 276.441 24.08C276.361 23.5467 276.254 22.9333 276.121 22.24L275.841 18.6C275.627 18.6 275.334 18.6267 274.961 18.68C274.614 18.7333 274.174 18.8133 273.641 18.92C273.561 18.92 273.481 18.92 273.401 18.92C273.347 18.8933 273.281 18.88 273.201 18.88C272.961 18.88 272.747 18.9067 272.561 18.96C272.374 18.9867 272.294 18.9867 272.321 18.96C271.707 18.8267 271.401 18.4 271.401 17.68C271.401 17.04 271.694 16.6667 272.281 16.56C272.307 16.56 272.334 16.5733 272.361 16.6C272.414 16.6 272.467 16.6 272.521 16.6C272.654 16.6 272.814 16.5867 273.001 16.56C273.214 16.5333 273.414 16.5067 273.601 16.48C273.787 16.4267 273.934 16.3867 274.041 16.36C274.174 16.3333 274.227 16.32 274.201 16.32C274.387 16.2667 274.601 16.2267 274.841 16.2C275.081 16.1733 275.374 16.1467 275.721 16.12L275.401 12.12V11.88C275.401 10.84 275.854 9.57333 276.761 8.08C277.027 7.92 277.281 7.77333 277.521 7.64C277.787 7.50666 278.094 7.38666 278.441 7.28C278.787 7.14666 279.214 7.02666 279.721 6.92C280.227 6.81333 280.881 6.70667 281.681 6.6H281.881C282.574 6.6 282.921 7.01333 282.921 7.84C282.921 8.48 282.614 8.90667 282.001 9.12H281.761C281.361 9.12 280.947 9.2 280.521 9.36L279.401 9.84C278.947 10.0533 278.654 10.3467 278.521 10.72C278.387 11.0667 278.281 11.44 278.201 11.84C278.201 11.8667 278.201 11.9867 278.201 12.2C278.227 12.3867 278.241 12.6133 278.241 12.88C278.241 13.12 278.241 13.36 278.241 13.6C278.267 13.84 278.281 14.0133 278.281 14.12V14.44C278.281 14.6533 278.294 14.88 278.321 15.12C278.347 15.36 278.401 15.6267 278.481 15.92C279.414 15.92 280.121 15.8533 280.601 15.72C281.081 15.5867 281.507 15.52 281.881 15.52C282.281 15.52 282.667 15.6 283.041 15.76C283.441 15.8933 283.641 16.2267 283.641 16.76C283.641 17.3733 283.427 17.76 283.001 17.92ZM296.543 9.16C298.383 9.16 299.957 9.56 301.263 10.36C302.597 11.16 303.61 12.2933 304.303 13.76C305.023 15.2 305.383 16.8933 305.383 18.84V20.96H290.703C290.757 23.3867 291.37 25.24 292.543 26.52C293.743 27.7733 295.41 28.4 297.543 28.4C298.903 28.4 300.103 28.28 301.143 28.04C302.21 27.7733 303.303 27.4 304.423 26.92V30C303.33 30.48 302.25 30.8267 301.183 31.04C300.117 31.28 298.85 31.4 297.383 31.4C295.357 31.4 293.557 30.9867 291.983 30.16C290.437 29.3333 289.223 28.1067 288.343 26.48C287.49 24.8267 287.063 22.8133 287.063 20.44C287.063 18.0933 287.45 16.08 288.223 14.4C289.023 12.72 290.13 11.4267 291.543 10.52C292.983 9.61333 294.65 9.16 296.543 9.16ZM296.503 12.04C294.823 12.04 293.49 12.5867 292.503 13.68C291.543 14.7467 290.97 16.24 290.783 18.16H301.703C301.677 16.3467 301.25 14.88 300.423 13.76C299.597 12.6133 298.29 12.04 296.503 12.04ZM301.903 0.759998C301.583 1.24 301.09 1.86667 300.423 2.64C299.757 3.38666 299.037 4.14667 298.263 4.92C297.517 5.66667 296.823 6.28 296.183 6.76H293.863V6.28C294.263 5.77333 294.69 5.17333 295.143 4.48C295.623 3.78667 296.09 3.08 296.543 2.36C296.997 1.61333 297.37 0.946666 297.663 0.359999H301.903V0.759998ZM340.918 29.4C340.065 30.2533 339.065 30.9867 337.918 31.6C336.772 32.2133 335.598 32.52 334.398 32.52C333.892 32.52 332.732 32.3333 330.918 31.96C330.438 31.64 329.932 31.24 329.398 30.76C328.865 30.28 328.372 29.7333 327.918 29.12C327.492 28.48 327.132 27.8133 326.838 27.12C326.572 26.4 326.438 25.6533 326.438 24.88V24.92C326.465 24.68 326.492 24.4 326.518 24.08C326.545 23.7867 326.572 23.4533 326.598 23.08C326.625 22.68 326.665 22.2133 326.718 21.68C327.252 20.8267 327.798 19.9867 328.358 19.16C328.945 18.3333 329.798 17.6 330.918 16.96C332.625 16.56 333.905 16.36 334.758 16.36C335.158 16.36 335.505 16.3867 335.798 16.44C336.118 16.4667 336.412 16.56 336.678 16.72C336.972 16.8533 337.252 17.04 337.518 17.28C337.812 17.52 338.158 17.84 338.558 18.24C338.852 18.56 339.078 18.8 339.238 18.96C339.398 19.0933 339.518 19.2 339.598 19.28C339.678 19.36 339.718 19.4267 339.718 19.48C339.718 19.5333 339.718 19.6133 339.718 19.72C339.718 20.68 339.612 21.4533 339.398 22.04C339.212 22.6267 338.838 23.1067 338.278 23.48C337.745 23.8533 336.998 24.1867 336.038 24.48C335.078 24.7467 333.838 25.0533 332.318 25.4H332.078C331.598 25.4 330.745 25.5067 329.518 25.72C330.478 28.5467 332.012 29.96 334.118 29.96C335.612 29.96 337.305 29.2 339.198 27.68C339.385 27.52 339.625 27.44 339.918 27.44C340.745 27.44 341.158 27.84 341.158 28.64C341.158 28.9067 341.078 29.16 340.918 29.4ZM337.078 20.44C336.358 19.24 335.545 18.64 334.638 18.64C334.238 18.64 333.812 18.6933 333.358 18.8C332.905 18.9067 332.465 19.0533 332.038 19.24C331.638 19.4267 331.252 19.6533 330.878 19.92C330.532 20.1867 330.238 20.4933 329.998 20.84C329.892 21.0533 329.785 21.36 329.678 21.76C329.598 22.16 329.492 22.64 329.358 23.2C330.078 23.0667 330.865 22.9733 331.718 22.92C332.598 22.8667 333.425 22.76 334.198 22.6C334.998 22.44 335.665 22.2 336.198 21.88C336.732 21.56 337.025 21.08 337.078 20.44ZM14.5073 67C14.4807 67.2133 14.3873 67.4933 14.2273 67.84C14.094 68.16 13.894 68.5867 13.6273 69.12C13.3873 69.6533 13.0673 70.3067 12.6673 71.08C12.294 71.8533 11.8673 72.7867 11.3873 73.88C10.614 75.96 9.89401 77.3867 9.22734 78.16C9.12068 78.4533 8.96068 78.7733 8.74734 79.12C8.53401 79.44 8.28068 79.7467 7.98734 80.04C7.69401 80.3333 7.36068 80.5733 6.98734 80.76C6.64068 80.9467 6.28068 81.04 5.90734 81.04C4.94734 81.04 4.24068 80.3733 3.78734 79.04C3.44068 78.6667 3.12068 78.2133 2.82734 77.68C2.56068 77.1467 2.32068 76.6267 2.10734 76.12C1.89401 75.6133 1.70734 75.1733 1.54734 74.8C1.41401 74.4267 1.33401 74.2 1.30734 74.12C1.01401 73.3733 0.867344 72.5867 0.867344 71.76V71.44C0.574011 70.5333 0.360677 69.76 0.227344 69.12C0.0940105 68.48 0.0273438 67.9333 0.0273438 67.48C0.29401 66.9733 0.800677 66.72 1.54734 66.72C1.81401 66.72 2.02734 66.7867 2.18734 66.92C2.34734 67.0533 2.46734 67.2533 2.54734 67.52C2.65401 67.76 2.73401 68.08 2.78734 68.48C2.86734 68.8533 2.96068 69.28 3.06734 69.76C3.28068 70.8533 3.50734 71.8 3.74734 72.6C4.01401 73.3733 4.28068 74.0667 4.54734 74.68C4.81401 75.2667 5.08068 75.8133 5.34734 76.32C5.64068 76.8 5.94734 77.2933 6.26734 77.8C6.64068 77.4 6.94734 77.0533 7.18734 76.76C7.42734 76.4667 7.61401 76.1867 7.74734 75.92C7.90734 75.6533 8.04068 75.3867 8.14734 75.12C8.25401 74.8533 8.34734 74.5333 8.42734 74.16C8.69401 73.7333 8.88068 73.3467 8.98734 73C9.12068 72.6267 9.29401 72.1733 9.50734 71.64C9.72068 71.08 10.0273 70.3733 10.4273 69.52C10.854 68.64 11.4673 67.4933 12.2673 66.08C12.454 65.8133 12.7207 65.68 13.0673 65.68C13.4673 65.68 13.8007 65.8267 14.0673 66.12C14.3607 66.3867 14.5073 66.68 14.5073 67ZM32.7933 79.4C31.9399 80.2533 30.9399 80.9867 29.7933 81.6C28.6466 82.2133 27.4733 82.52 26.2733 82.52C25.7666 82.52 24.6066 82.3333 22.7933 81.96C22.3133 81.64 21.8066 81.24 21.2733 80.76C20.7399 80.28 20.2466 79.7333 19.7933 79.12C19.3666 78.48 19.0066 77.8133 18.7133 77.12C18.4466 76.4 18.3133 75.6533 18.3133 74.88V74.92C18.3399 74.68 18.3666 74.4 18.3933 74.08C18.4199 73.7867 18.4466 73.4533 18.4733 73.08C18.4999 72.68 18.5399 72.2133 18.5933 71.68C19.1266 70.8267 19.6733 69.9867 20.2333 69.16C20.8199 68.3333 21.6733 67.6 22.7933 66.96C24.4999 66.56 25.7799 66.36 26.6333 66.36C27.0333 66.36 27.3799 66.3867 27.6733 66.44C27.9933 66.4667 28.2866 66.56 28.5533 66.72C28.8466 66.8533 29.1266 67.04 29.3933 67.28C29.6866 67.52 30.0333 67.84 30.4333 68.24C30.7266 68.56 30.9533 68.8 31.1133 68.96C31.2733 69.0933 31.3933 69.2 31.4733 69.28C31.5533 69.36 31.5933 69.4267 31.5933 69.48C31.5933 69.5333 31.5933 69.6133 31.5933 69.72C31.5933 70.68 31.4866 71.4533 31.2733 72.04C31.0866 72.6267 30.7133 73.1067 30.1533 73.48C29.6199 73.8533 28.8733 74.1867 27.9133 74.48C26.9533 74.7467 25.7133 75.0533 24.1933 75.4H23.9533C23.4733 75.4 22.6199 75.5067 21.3933 75.72C22.3533 78.5467 23.8866 79.96 25.9933 79.96C27.4866 79.96 29.1799 79.2 31.0733 77.68C31.2599 77.52 31.4999 77.44 31.7933 77.44C32.6199 77.44 33.0333 77.84 33.0333 78.64C33.0333 78.9067 32.9533 79.16 32.7933 79.4ZM28.9533 70.44C28.2333 69.24 27.4199 68.64 26.5133 68.64C26.1133 68.64 25.6866 68.6933 25.2333 68.8C24.7799 68.9067 24.3399 69.0533 23.9133 69.24C23.5133 69.4267 23.1266 69.6533 22.7533 69.92C22.4066 70.1867 22.1133 70.4933 21.8733 70.84C21.7666 71.0533 21.6599 71.36 21.5533 71.76C21.4733 72.16 21.3666 72.64 21.2333 73.2C21.9533 73.0667 22.7399 72.9733 23.5933 72.92C24.4733 72.8667 25.2999 72.76 26.0733 72.6C26.8733 72.44 27.5399 72.2 28.0733 71.88C28.6066 71.56 28.8999 71.08 28.9533 70.44ZM50.9748 76.76V77.08C50.9748 77.2133 50.9748 77.48 50.9748 77.88C51.0015 78.2533 50.9748 78.64 50.8948 79.04C50.8148 79.44 50.6682 79.8 50.4548 80.12C50.2682 80.44 49.9615 80.6 49.5348 80.6C48.7615 80.6 48.2948 80.2933 48.1348 79.68C48.1615 79.4667 48.1748 79.24 48.1748 79C48.2015 78.7333 48.2148 78.4533 48.2148 78.16C48.2148 77.6533 48.1882 77.08 48.1348 76.44C48.1082 75.8 48.0682 75.0933 48.0148 74.32L47.6948 72.4C47.5882 71.76 47.4148 71.2667 47.1748 70.92C46.9348 70.5467 46.6682 70.28 46.3748 70.12C46.0815 69.9333 45.7748 69.8267 45.4548 69.8C45.1615 69.7467 44.9082 69.72 44.6948 69.72C43.8948 69.72 43.2148 69.96 42.6548 70.44C42.0948 70.8933 41.6282 71.8 41.2548 73.16C41.2282 73.6133 41.1882 74.1067 41.1348 74.64C41.1082 75.1733 41.0415 75.76 40.9348 76.4C40.9882 77.36 41.0682 78.5867 41.1748 80.08C41.1748 80.9067 40.7082 81.32 39.7748 81.32C39.4015 81.32 39.1082 81.2133 38.8948 81C38.7082 80.7867 38.5615 80.52 38.4548 80.2C38.3748 79.8533 38.3215 79.4933 38.2948 79.12C38.2682 78.7467 38.2548 78.4 38.2548 78.08C38.2548 77.7867 38.2682 77.4933 38.2948 77.2C38.3215 76.9067 38.3615 76.6 38.4148 76.28L38.7748 72.16C38.8015 71.8667 38.8415 71.5467 38.8948 71.2C38.9748 70.8533 39.0682 70.4667 39.1748 70.04C39.0948 69.4533 38.8548 68.76 38.4548 67.96V67.8C38.4548 67.5067 38.5882 67.2267 38.8548 66.96C39.1482 66.6933 39.4815 66.56 39.8548 66.56C40.2282 66.56 40.5348 66.6933 40.7748 66.96C41.0148 67.2 41.3215 67.6133 41.6948 68.2C41.9082 68.0133 42.2548 67.84 42.7348 67.68C43.2415 67.4933 43.8148 67.4 44.4548 67.4C45.8948 67.4 47.1348 67.7067 48.1748 68.32C49.2148 68.9333 49.8815 70.0267 50.1748 71.6C50.2548 72.2133 50.3215 72.72 50.3748 73.12C50.4282 73.4933 50.4815 73.8533 50.5348 74.2C50.6148 74.52 50.6815 74.88 50.7348 75.28C50.8148 75.6533 50.8948 76.1467 50.9748 76.76ZM70.4402 79.72C70.3335 80.0133 70.1202 80.2933 69.8002 80.56C69.5068 80.8267 69.2135 80.96 68.9202 80.96C68.5735 80.96 68.3068 80.8267 68.1202 80.56C67.9335 80.2667 67.8002 79.9067 67.7202 79.48C67.6402 79.0267 67.5868 78.52 67.5602 77.96C67.5335 77.4 67.5202 76.84 67.5202 76.28C67.4135 76.0133 67.3602 75.6667 67.3602 75.24C67.3602 75.0533 67.3602 74.8533 67.3602 74.64C67.3868 74.4 67.4002 74.2 67.4002 74.04C67.4002 73.1067 67.3202 72.36 67.1602 71.8C67.0002 71.2133 66.7868 70.76 66.5202 70.44C66.2802 70.12 66.0135 69.9067 65.7202 69.8C65.4268 69.6933 65.1468 69.64 64.8802 69.64C64.4002 69.64 63.9068 69.7333 63.4002 69.92C62.9202 70.1067 62.4668 70.32 62.0402 70.56C61.6402 70.8 61.2935 71.0533 61.0002 71.32C60.7335 71.56 60.5602 71.7467 60.4802 71.88C60.4002 72.1733 60.3335 72.6 60.2802 73.16C60.2535 73.6933 60.2268 74.32 60.2002 75.04C60.1735 75.76 60.1468 76.5467 60.1202 77.4C60.0935 78.2267 60.0668 79.08 60.0402 79.96C59.9602 80.4667 59.5468 80.72 58.8002 80.72C58.1868 80.72 57.7868 80.5067 57.6002 80.08C57.4135 79.6267 57.3202 78.8667 57.3202 77.8C57.3202 77.5333 57.3202 77.3467 57.3202 77.24C57.3468 77.1333 57.3735 76.9467 57.4002 76.68C57.4535 76.4133 57.5068 76 57.5602 75.44C57.6135 74.8533 57.6802 73.9333 57.7602 72.68C57.7868 72.0933 57.8135 71.5733 57.8402 71.12C57.8668 70.6667 57.8668 70.2667 57.8402 69.92C57.8402 69.6267 57.8402 69.3867 57.8402 69.2C57.8402 69.0133 57.8268 68.8533 57.8002 68.72C57.8268 68.6933 57.8535 68.4667 57.8802 68.04C57.9068 67.5867 57.9468 67.0933 58.0002 66.56C58.0535 66.0267 58.1068 65.52 58.1602 65.04C58.2135 64.5333 58.2802 64.1867 58.3602 64C58.3602 63.8667 58.3468 63.7467 58.3202 63.64C58.3202 63.5333 58.3202 63.4133 58.3202 63.28C58.3202 62.8533 58.3335 62.3333 58.3602 61.72C58.4135 61.08 58.5068 60.48 58.6402 59.92C58.7735 59.36 58.9735 58.88 59.2402 58.48C59.5068 58.08 59.8802 57.88 60.3602 57.88C61.1335 57.88 61.5335 58.2933 61.5602 59.12C61.5068 59.8933 61.4135 60.7867 61.2802 61.8C61.1468 62.8133 60.9735 64.1467 60.7602 65.8C60.6268 66.2 60.5602 66.9333 60.5602 68V68.72C60.6135 68.6933 60.7335 68.6133 60.9202 68.48C61.1068 68.3467 61.3202 68.2 61.5602 68.04C61.8268 67.8533 62.1068 67.6933 62.4002 67.56C62.6935 67.4 62.9735 67.2933 63.2402 67.24C63.8535 67.1333 64.4935 67.08 65.1602 67.08C66.4402 67.08 67.4535 67.4533 68.2002 68.2C68.9735 68.92 69.5335 70.1333 69.8802 71.84C69.9068 72.48 69.9335 73 69.9602 73.4C70.0135 73.8 70.0535 74.2533 70.0802 74.76C70.1335 75.24 70.1868 75.8533 70.2402 76.6C70.3202 77.3467 70.3868 78.3867 70.4402 79.72ZM90.9323 77C91.3057 77.24 91.4923 77.5333 91.4923 77.88C91.4923 78.2533 91.3057 78.6133 90.9323 78.96C90.559 79.3067 90.199 79.48 89.8523 79.48C89.0257 79.1867 88.3057 78.64 87.6923 77.84C87.1057 77.04 86.7057 76.1733 86.4923 75.24C86.3057 75.64 86.079 76.1467 85.8123 76.76C85.5723 77.3467 85.2523 77.9067 84.8523 78.44C84.4523 78.9733 83.959 79.44 83.3723 79.84C82.7857 80.2133 82.0523 80.4 81.1723 80.4C80.719 80.4 80.119 80.32 79.3723 80.16C78.5457 79.5733 77.8923 79.1067 77.4123 78.76C76.959 78.3867 76.6123 78.04 76.3723 77.72C76.1323 77.4 75.9857 77.04 75.9323 76.64C75.879 76.24 75.8523 75.7067 75.8523 75.04C75.8523 74.48 75.9323 73.8667 76.0923 73.2C76.279 72.5067 76.5323 71.8133 76.8523 71.12C77.1723 70.4267 77.5723 69.7467 78.0523 69.08C78.5323 68.4133 79.0923 67.8 79.7323 67.24C80.9057 66.84 81.8257 66.5467 82.4923 66.36C83.159 66.1733 83.6123 66.08 83.8523 66.08C84.3857 65.4667 84.9457 65.16 85.5323 65.16C85.8523 65.16 86.1323 65.3467 86.3723 65.72C86.6123 66.0933 86.8257 66.5867 87.0123 67.2C87.2257 67.7867 87.3857 68.44 87.4923 69.16C87.6257 69.88 87.7323 70.5733 87.8123 71.24C87.8923 71.3733 87.959 71.5333 88.0123 71.72C88.0657 71.88 88.119 72.0933 88.1723 72.36L88.4123 73.48C88.5723 74.2533 88.879 74.92 89.3323 75.48C89.7857 76.04 90.319 76.5467 90.9323 77ZM85.2923 71.72C85.239 71.48 85.1457 71.08 85.0123 70.52C84.879 69.96 84.7057 69.24 84.4923 68.36C84.1723 68.44 83.8257 68.48 83.4523 68.48C83.079 68.4533 82.679 68.52 82.2523 68.68C81.8257 68.84 81.359 69.1333 80.8523 69.56C80.3723 69.9867 79.879 70.6533 79.3723 71.56C78.7323 72.7333 78.4123 73.9733 78.4123 75.28C78.5723 75.6267 78.719 75.9333 78.8523 76.2C78.9857 76.44 79.1457 76.6667 79.3323 76.88C79.5457 77.0667 79.799 77.2533 80.0923 77.44C80.3857 77.6267 80.759 77.8267 81.2123 78.04C81.6123 77.96 81.9457 77.8667 82.2123 77.76C82.5057 77.6533 82.759 77.4933 82.9723 77.28C83.1857 77.04 83.3857 76.7467 83.5723 76.4C83.759 76.0533 83.9857 75.6 84.2523 75.04C84.9457 73.4933 85.2923 72.3867 85.2923 71.72ZM116.762 59.68C116.735 59.9733 116.682 60.3333 116.602 60.76C116.522 61.1867 116.429 61.6267 116.322 62.08C116.215 62.5067 116.109 62.92 116.002 63.32C115.922 63.72 115.855 64.04 115.802 64.28C115.829 64.4133 115.842 64.5333 115.842 64.64C115.842 64.7467 115.842 64.8667 115.842 65C115.842 65.2133 115.815 65.4933 115.762 65.84C115.709 66.1867 115.642 66.5467 115.562 66.92C115.482 67.2933 115.415 67.6533 115.362 68C115.309 68.32 115.282 68.5733 115.282 68.76C115.282 69.0267 115.282 69.4133 115.282 69.92C115.309 70.4267 115.322 70.9867 115.322 71.6C115.322 72.1867 115.295 72.8 115.242 73.44C115.189 74.08 115.095 74.6533 114.962 75.16C114.989 75.48 115.002 75.8 115.002 76.12C115.002 76.44 115.029 76.7867 115.082 77.16C115.162 77.5067 115.282 77.8933 115.442 78.32C115.629 78.7467 115.922 79.2 116.322 79.68C116.242 79.9733 115.989 80.2533 115.562 80.52C115.162 80.76 114.749 80.88 114.322 80.88C113.762 80.88 113.295 80.5733 112.922 79.96C112.575 79.32 112.402 78.16 112.402 76.48C112.402 76.1867 112.415 75.9333 112.442 75.72C112.495 75.48 112.522 75.2 112.522 74.88C112.522 74.2133 112.442 73.4133 112.282 72.48C112.389 72.2133 112.469 71.84 112.522 71.36C112.602 70.88 112.655 70.4133 112.682 69.96C112.709 69.48 112.722 69.08 112.722 68.76C112.749 68.4133 112.762 68.2533 112.762 68.28C112.762 68.2533 112.789 68.04 112.842 67.64C112.922 67.24 113.002 66.76 113.082 66.2C113.162 65.64 113.229 65.08 113.282 64.52C113.362 63.9333 113.402 63.4667 113.402 63.12V62.8C113.482 62.32 113.575 61.7867 113.682 61.2C113.789 60.6133 113.909 59.9733 114.042 59.28C114.282 58.88 114.682 58.68 115.242 58.68C115.935 58.68 116.442 59.0133 116.762 59.68ZM136.66 79.4C135.807 80.2533 134.807 80.9867 133.66 81.6C132.514 82.2133 131.34 82.52 130.14 82.52C129.634 82.52 128.474 82.3333 126.66 81.96C126.18 81.64 125.674 81.24 125.14 80.76C124.607 80.28 124.114 79.7333 123.66 79.12C123.234 78.48 122.874 77.8133 122.58 77.12C122.314 76.4 122.18 75.6533 122.18 74.88V74.92C122.207 74.68 122.234 74.4 122.26 74.08C122.287 73.7867 122.314 73.4533 122.34 73.08C122.367 72.68 122.407 72.2133 122.46 71.68C122.994 70.8267 123.54 69.9867 124.1 69.16C124.687 68.3333 125.54 67.6 126.66 66.96C128.367 66.56 129.647 66.36 130.5 66.36C130.9 66.36 131.247 66.3867 131.54 66.44C131.86 66.4667 132.154 66.56 132.42 66.72C132.714 66.8533 132.994 67.04 133.26 67.28C133.554 67.52 133.9 67.84 134.3 68.24C134.594 68.56 134.82 68.8 134.98 68.96C135.14 69.0933 135.26 69.2 135.34 69.28C135.42 69.36 135.46 69.4267 135.46 69.48C135.46 69.5333 135.46 69.6133 135.46 69.72C135.46 70.68 135.354 71.4533 135.14 72.04C134.954 72.6267 134.58 73.1067 134.02 73.48C133.487 73.8533 132.74 74.1867 131.78 74.48C130.82 74.7467 129.58 75.0533 128.06 75.4H127.82C127.34 75.4 126.487 75.5067 125.26 75.72C126.22 78.5467 127.754 79.96 129.86 79.96C131.354 79.96 133.047 79.2 134.94 77.68C135.127 77.52 135.367 77.44 135.66 77.44C136.487 77.44 136.9 77.84 136.9 78.64C136.9 78.9067 136.82 79.16 136.66 79.4ZM132.82 70.44C132.1 69.24 131.287 68.64 130.38 68.64C129.98 68.64 129.554 68.6933 129.1 68.8C128.647 68.9067 128.207 69.0533 127.78 69.24C127.38 69.4267 126.994 69.6533 126.62 69.92C126.274 70.1867 125.98 70.4933 125.74 70.84C125.634 71.0533 125.527 71.36 125.42 71.76C125.34 72.16 125.234 72.64 125.1 73.2C125.82 73.0667 126.607 72.9733 127.46 72.92C128.34 72.8667 129.167 72.76 129.94 72.6C130.74 72.44 131.407 72.2 131.94 71.88C132.474 71.56 132.767 71.08 132.82 70.44ZM152.802 67.4C153.122 67.6133 153.282 67.9867 153.282 68.52C153.282 69.56 152.855 70.08 152.002 70.08C151.602 70.08 151.202 69.9867 150.802 69.8C150.402 69.6133 150.015 69.52 149.642 69.52C149.215 69.52 148.802 69.6 148.402 69.76C148.029 69.92 147.602 70.24 147.122 70.72L145.642 72.16V73C145.642 73.4 145.629 73.8533 145.602 74.36C145.602 74.84 145.589 75.36 145.562 75.92C145.589 76.9067 145.709 78.24 145.922 79.92C145.842 80.88 145.362 81.36 144.482 81.36C144.002 81.36 143.655 81.24 143.442 81C143.255 80.7333 143.122 80.3867 143.042 79.96C142.962 79.5333 142.922 79.0533 142.922 78.52C142.922 77.9867 142.895 77.44 142.842 76.88C142.869 76.7467 142.882 76.5867 142.882 76.4C142.882 76.2133 142.882 76.0133 142.882 75.8V75.16L142.642 72.24C142.615 72.1067 142.602 71.9867 142.602 71.88C142.602 71.7733 142.602 71.6667 142.602 71.56C142.602 71.3467 142.629 71.1067 142.682 70.84C142.415 69.88 142.282 69.1733 142.282 68.72C142.282 68.3467 142.389 68.08 142.602 67.92C142.815 67.7333 143.202 67.64 143.762 67.64C144.135 67.64 144.429 67.7733 144.642 68.04C144.855 68.28 145.122 68.5867 145.442 68.96L147.202 67.68C147.655 67.3333 148.069 67.1067 148.442 67C148.842 66.8933 149.229 66.84 149.602 66.84C150.162 66.84 150.749 66.9067 151.362 67.04L152.802 67.4ZM187.832 79.4C186.979 80.2533 185.979 80.9867 184.832 81.6C183.686 82.2133 182.512 82.52 181.312 82.52C180.806 82.52 179.646 82.3333 177.832 81.96C177.352 81.64 176.846 81.24 176.312 80.76C175.779 80.28 175.286 79.7333 174.832 79.12C174.406 78.48 174.046 77.8133 173.752 77.12C173.486 76.4 173.352 75.6533 173.352 74.88V74.92C173.379 74.68 173.406 74.4 173.432 74.08C173.459 73.7867 173.486 73.4533 173.512 73.08C173.539 72.68 173.579 72.2133 173.632 71.68C174.166 70.8267 174.712 69.9867 175.272 69.16C175.859 68.3333 176.712 67.6 177.832 66.96C179.539 66.56 180.819 66.36 181.672 66.36C182.072 66.36 182.419 66.3867 182.712 66.44C183.032 66.4667 183.326 66.56 183.592 66.72C183.886 66.8533 184.166 67.04 184.432 67.28C184.726 67.52 185.072 67.84 185.472 68.24C185.766 68.56 185.992 68.8 186.152 68.96C186.312 69.0933 186.432 69.2 186.512 69.28C186.592 69.36 186.632 69.4267 186.632 69.48C186.632 69.5333 186.632 69.6133 186.632 69.72C186.632 70.68 186.526 71.4533 186.312 72.04C186.126 72.6267 185.752 73.1067 185.192 73.48C184.659 73.8533 183.912 74.1867 182.952 74.48C181.992 74.7467 180.752 75.0533 179.232 75.4H178.992C178.512 75.4 177.659 75.5067 176.432 75.72C177.392 78.5467 178.926 79.96 181.032 79.96C182.526 79.96 184.219 79.2 186.112 77.68C186.299 77.52 186.539 77.44 186.832 77.44C187.659 77.44 188.072 77.84 188.072 78.64C188.072 78.9067 187.992 79.16 187.832 79.4ZM183.992 70.44C183.272 69.24 182.459 68.64 181.552 68.64C181.152 68.64 180.726 68.6933 180.272 68.8C179.819 68.9067 179.379 69.0533 178.952 69.24C178.552 69.4267 178.166 69.6533 177.792 69.92C177.446 70.1867 177.152 70.4933 176.912 70.84C176.806 71.0533 176.699 71.36 176.592 71.76C176.512 72.16 176.406 72.64 176.272 73.2C176.992 73.0667 177.779 72.9733 178.632 72.92C179.512 72.8667 180.339 72.76 181.112 72.6C181.912 72.44 182.579 72.2 183.112 71.88C183.646 71.56 183.939 71.08 183.992 70.44ZM222.611 77.28C222.077 78.3733 221.277 79.2133 220.211 79.8C219.171 80.36 217.864 80.64 216.291 80.64C215.944 80.64 215.384 80.5733 214.611 80.44C213.837 80.3067 213.051 80.0267 212.251 79.6C211.451 79.1467 210.744 78.5333 210.131 77.76C209.544 76.96 209.251 75.8933 209.251 74.56C209.251 73.3867 209.424 72.2667 209.771 71.2C210.117 70.1067 210.717 69.0667 211.571 68.08C212.131 67.44 212.624 66.92 213.051 66.52C213.477 66.0933 213.891 65.7733 214.291 65.56C214.717 65.3467 215.171 65.2 215.651 65.12C216.157 65.04 216.771 65 217.491 65C218.291 65 218.917 65.0533 219.371 65.16C219.824 65.24 220.171 65.36 220.411 65.52C220.651 65.6533 220.797 65.8267 220.851 66.04C220.931 66.2267 220.971 66.44 220.971 66.68C220.971 67.5867 220.437 68.04 219.371 68.04C219.397 68.04 219.331 68.0267 219.171 68C219.011 67.9467 218.811 67.8933 218.571 67.84C218.331 67.76 218.077 67.7067 217.811 67.68C217.544 67.6267 217.304 67.6 217.091 67.6C216.317 67.6 215.464 67.9733 214.531 68.72C213.624 69.44 212.904 70.5733 212.371 72.12C212.211 72.5733 212.091 72.9867 212.011 73.36C211.957 73.7067 211.931 74 211.931 74.24C211.931 75.0933 212.157 75.7867 212.611 76.32C213.091 76.8267 213.624 77.2267 214.211 77.52C214.824 77.7867 215.397 77.9733 215.931 78.08C216.464 78.16 216.797 78.2 216.931 78.2C217.384 78.2 217.824 78.08 218.251 77.84C218.704 77.6 219.104 77.3467 219.451 77.08C219.797 76.7867 220.077 76.52 220.291 76.28C220.531 76.04 220.651 75.92 220.651 75.92C220.864 75.7333 221.104 75.64 221.371 75.64C221.717 75.64 222.011 75.8 222.251 76.12C222.491 76.44 222.611 76.76 222.611 77.08V77.28ZM237.121 80.08C236.614 80.4267 235.268 80.8267 233.081 81.28L231.401 80.96C231.188 80.88 230.801 80.68 230.241 80.36C229.708 80.04 229.148 79.5733 228.561 78.96C228.001 78.3467 227.494 77.5733 227.041 76.64C226.614 75.7067 226.401 74.6 226.401 73.32C226.401 72.28 226.694 71.36 227.281 70.56C227.868 69.7333 228.761 68.8533 229.961 67.92C230.601 67.76 231.228 67.68 231.841 67.68C233.628 67.68 235.268 68.28 236.761 69.48C238.041 71.24 238.681 73.1733 238.681 75.28C238.681 76.9333 238.161 78.5333 237.121 80.08ZM233.481 70.32C233.081 70.1333 232.654 70.04 232.201 70.04C231.881 70.04 231.534 70.12 231.161 70.28C230.814 70.44 230.481 70.68 230.161 71C229.868 71.32 229.628 71.7333 229.441 72.24C229.254 72.72 229.161 73.2933 229.161 73.96C229.161 74.4933 229.228 75.0267 229.361 75.56C229.521 76.0933 229.748 76.5867 230.041 77.04C230.361 77.4933 230.761 77.8667 231.241 78.16C231.721 78.4267 232.294 78.56 232.961 78.56C233.574 78.56 234.268 78.4 235.041 78.08C235.708 77.2533 236.041 76.2667 236.041 75.12C236.041 72.5867 235.188 70.9867 233.481 70.32ZM266.956 79C266.956 79.56 266.529 79.84 265.676 79.84C265.276 79.84 264.969 79.6667 264.756 79.32C264.569 78.9733 264.436 78.5333 264.356 78C264.276 77.4667 264.223 76.88 264.196 76.24C264.196 75.5733 264.183 74.9333 264.156 74.32C264.023 73.84 263.863 73.0133 263.676 71.84C263.329 71.36 262.889 70.9733 262.356 70.68C261.849 70.36 261.276 70.2 260.636 70.2C260.396 70.2 260.129 70.24 259.836 70.32C259.543 70.3733 259.236 70.4533 258.916 70.56C258.596 70.64 258.289 70.7467 257.996 70.88C257.703 71.0133 257.463 71.16 257.276 71.32C256.743 71.7467 256.289 72.7733 255.916 74.4C255.943 74.5333 255.956 74.7867 255.956 75.16C255.956 75.48 255.929 75.8667 255.876 76.32C255.849 76.7467 255.809 77.24 255.756 77.8V78.08C255.756 78.16 255.756 78.3867 255.756 78.76C255.783 79.1333 255.756 79.5333 255.676 79.96C255.596 80.36 255.449 80.72 255.236 81.04C255.023 81.3867 254.703 81.56 254.276 81.56C253.396 81.56 252.956 81.2267 252.956 80.56C252.956 80.48 252.969 80.2667 252.996 79.92C253.049 79.5467 253.103 79.1333 253.156 78.68C253.236 78.2267 253.289 77.7733 253.316 77.32C253.369 76.84 253.396 76.4533 253.396 76.16C253.396 75.6 253.356 75.0933 253.276 74.64V73.88C253.276 73.4 253.236 72.8933 253.156 72.36C253.103 71.8267 252.996 71.3333 252.836 70.88C252.676 70.4 252.449 69.9867 252.156 69.64C251.889 69.2933 251.543 69.04 251.116 68.88C251.063 68.8533 250.623 68.8 249.796 68.72C249.103 68.88 248.516 69.32 248.036 70.04L247.076 71.92C246.996 72.4267 246.929 72.88 246.876 73.28C246.849 73.68 246.823 74.0533 246.796 74.4L246.676 76.24C246.836 77.1733 246.916 77.9467 246.916 78.56C246.916 79.0933 246.849 79.5333 246.716 79.88C246.583 80.2 246.223 80.36 245.636 80.36C245.343 80.36 245.103 80.3333 244.916 80.28C244.729 80.2 244.569 80 244.436 79.68C244.329 79.36 244.249 78.88 244.196 78.24C244.143 77.6 244.116 76.7067 244.116 75.56C244.116 74.6533 244.169 73.76 244.276 72.88C244.409 71.9733 244.583 70.84 244.796 69.48C244.716 68.68 244.516 67.9067 244.196 67.16C244.196 66.8133 244.316 66.5067 244.556 66.24C244.823 65.9733 245.169 65.84 245.596 65.84C245.943 65.84 246.223 65.96 246.436 66.2C246.676 66.44 246.996 66.9067 247.396 67.6C247.929 67.0667 248.383 66.68 248.756 66.44C249.156 66.2 249.569 66.0533 249.996 66C250.423 66 250.756 66.0133 250.996 66.04C251.263 66.04 251.503 66.08 251.716 66.16C251.956 66.2133 252.209 66.3333 252.476 66.52C252.743 66.68 253.116 66.92 253.596 67.24C254.076 67.5867 254.569 68.56 255.076 70.16C255.209 69.9733 255.409 69.7333 255.676 69.44C255.969 69.1467 256.329 68.8667 256.756 68.6C257.183 68.3333 257.703 68.1067 258.316 67.92C258.929 67.7333 259.636 67.64 260.436 67.64C261.289 67.64 262.023 67.72 262.636 67.88C263.249 68.04 263.783 68.28 264.236 68.6C264.689 68.92 265.076 69.32 265.396 69.8C265.743 70.28 266.063 70.84 266.356 71.48V71.8C266.356 72.04 266.383 72.4533 266.436 73.04C266.489 73.6267 266.543 74.2133 266.596 74.8C266.649 75.36 266.703 75.8533 266.756 76.28C266.809 76.7067 266.836 76.8933 266.836 76.84C266.836 76.8667 266.836 76.96 266.836 77.12C266.863 77.2533 266.876 77.4267 266.876 77.64C266.903 77.8267 266.916 78.0267 266.916 78.24C266.943 78.4533 266.956 78.6267 266.956 78.76V79ZM286.537 72.48V72.72C286.51 73.12 286.457 73.52 286.377 73.92C286.323 74.32 286.203 74.7067 286.017 75.08L285.177 76.76C284.963 77.0533 284.63 77.36 284.177 77.68C283.723 78 283.23 78.3067 282.697 78.6C282.19 78.8667 281.67 79.0933 281.137 79.28C280.63 79.4667 280.203 79.56 279.857 79.56H279.457C279.35 79.56 279.177 79.5867 278.937 79.64C278.723 79.6667 278.483 79.72 278.217 79.8C277.95 79.8533 277.683 79.9067 277.417 79.96C277.177 79.9867 276.977 80 276.817 80C276.603 80 276.457 79.9867 276.377 79.96L276.257 82.68C276.23 82.84 276.23 83.0667 276.257 83.36C276.283 83.68 276.297 84.0933 276.297 84.6C276.297 85.1333 276.257 85.7867 276.177 86.56C276.123 87.3333 276.017 88.2667 275.857 89.36C275.563 89.5733 275.217 89.68 274.817 89.68C274.417 89.68 274.11 89.5733 273.897 89.36C273.71 89.1467 273.577 88.8933 273.497 88.6C273.443 88.3067 273.417 88 273.417 87.68C273.417 87.3867 273.417 87.1467 273.417 86.96C273.417 86.6933 273.43 86.4533 273.457 86.24C273.483 86.0267 273.497 85.8 273.497 85.56C273.523 85.3467 273.55 85.12 273.577 84.88C273.603 84.64 273.617 84.3467 273.617 84C273.617 83.7067 273.603 83.4133 273.577 83.12C273.577 82.8267 273.577 82.4933 273.577 82.12C273.577 81.3733 273.59 80.72 273.617 80.16C273.67 79.5733 273.723 79.08 273.777 78.68C273.643 78.1467 273.577 77.4 273.577 76.44C273.577 75.6667 273.59 74.9733 273.617 74.36C273.67 73.7467 273.75 73.24 273.857 72.84C273.67 71.9067 273.537 71.12 273.457 70.48C273.377 69.8133 273.337 69.2933 273.337 68.92C273.337 68.4667 273.443 68.1333 273.657 67.92C273.897 67.68 274.283 67.56 274.817 67.56C275.137 67.56 275.377 67.6267 275.537 67.76C275.723 67.8667 275.937 68.1867 276.177 68.72C277.483 67.92 279.017 67.52 280.777 67.52C282.51 67.52 283.883 67.88 284.897 68.6C285.91 69.2933 286.457 70.5867 286.537 72.48ZM283.817 72.32C283.817 70.96 283.057 70.1733 281.537 69.96C281.457 69.96 281.363 69.9733 281.257 70C281.177 70 281.097 70 281.017 70C280.803 70 280.563 70 280.297 70C280.057 69.9733 279.79 69.9467 279.497 69.92C278.457 70.0533 277.43 70.56 276.417 71.44C276.443 71.7867 276.457 72.16 276.457 72.56C276.483 72.96 276.497 73.4 276.497 73.88C276.443 74.44 276.39 74.9333 276.337 75.36C276.31 75.7867 276.297 76.1467 276.297 76.44C276.297 76.8933 276.323 77.1867 276.377 77.32C276.43 77.4533 276.577 77.52 276.817 77.52C276.897 77.52 277.043 77.5067 277.257 77.48C277.497 77.4267 277.75 77.3733 278.017 77.32C278.283 77.2667 278.537 77.2267 278.777 77.2C279.043 77.1467 279.217 77.12 279.297 77.12C280.23 77.0667 280.99 76.8533 281.577 76.48C282.163 76.08 282.617 75.64 282.937 75.16C283.283 74.6533 283.51 74.1333 283.617 73.6C283.75 73.0667 283.817 72.64 283.817 72.32ZM306.01 77C306.384 77.24 306.57 77.5333 306.57 77.88C306.57 78.2533 306.384 78.6133 306.01 78.96C305.637 79.3067 305.277 79.48 304.93 79.48C304.104 79.1867 303.384 78.64 302.77 77.84C302.184 77.04 301.784 76.1733 301.57 75.24C301.384 75.64 301.157 76.1467 300.89 76.76C300.65 77.3467 300.33 77.9067 299.93 78.44C299.53 78.9733 299.037 79.44 298.45 79.84C297.864 80.2133 297.13 80.4 296.25 80.4C295.797 80.4 295.197 80.32 294.45 80.16C293.624 79.5733 292.97 79.1067 292.49 78.76C292.037 78.3867 291.69 78.04 291.45 77.72C291.21 77.4 291.064 77.04 291.01 76.64C290.957 76.24 290.93 75.7067 290.93 75.04C290.93 74.48 291.01 73.8667 291.17 73.2C291.357 72.5067 291.61 71.8133 291.93 71.12C292.25 70.4267 292.65 69.7467 293.13 69.08C293.61 68.4133 294.17 67.8 294.81 67.24C295.984 66.84 296.904 66.5467 297.57 66.36C298.237 66.1733 298.69 66.08 298.93 66.08C299.464 65.4667 300.024 65.16 300.61 65.16C300.93 65.16 301.21 65.3467 301.45 65.72C301.69 66.0933 301.904 66.5867 302.09 67.2C302.304 67.7867 302.464 68.44 302.57 69.16C302.704 69.88 302.81 70.5733 302.89 71.24C302.97 71.3733 303.037 71.5333 303.09 71.72C303.144 71.88 303.197 72.0933 303.25 72.36L303.49 73.48C303.65 74.2533 303.957 74.92 304.41 75.48C304.864 76.04 305.397 76.5467 306.01 77ZM300.37 71.72C300.317 71.48 300.224 71.08 300.09 70.52C299.957 69.96 299.784 69.24 299.57 68.36C299.25 68.44 298.904 68.48 298.53 68.48C298.157 68.4533 297.757 68.52 297.33 68.68C296.904 68.84 296.437 69.1333 295.93 69.56C295.45 69.9867 294.957 70.6533 294.45 71.56C293.81 72.7333 293.49 73.9733 293.49 75.28C293.65 75.6267 293.797 75.9333 293.93 76.2C294.064 76.44 294.224 76.6667 294.41 76.88C294.624 77.0667 294.877 77.2533 295.17 77.44C295.464 77.6267 295.837 77.8267 296.29 78.04C296.69 77.96 297.024 77.8667 297.29 77.76C297.584 77.6533 297.837 77.4933 298.05 77.28C298.264 77.04 298.464 76.7467 298.65 76.4C298.837 76.0533 299.064 75.6 299.33 75.04C300.024 73.4933 300.37 72.3867 300.37 71.72ZM321.083 67.4C321.403 67.6133 321.563 67.9867 321.563 68.52C321.563 69.56 321.137 70.08 320.283 70.08C319.883 70.08 319.483 69.9867 319.083 69.8C318.683 69.6133 318.297 69.52 317.923 69.52C317.497 69.52 317.083 69.6 316.683 69.76C316.31 69.92 315.883 70.24 315.403 70.72L313.923 72.16V73C313.923 73.4 313.91 73.8533 313.883 74.36C313.883 74.84 313.87 75.36 313.843 75.92C313.87 76.9067 313.99 78.24 314.203 79.92C314.123 80.88 313.643 81.36 312.763 81.36C312.283 81.36 311.937 81.24 311.723 81C311.537 80.7333 311.403 80.3867 311.323 79.96C311.243 79.5333 311.203 79.0533 311.203 78.52C311.203 77.9867 311.177 77.44 311.123 76.88C311.15 76.7467 311.163 76.5867 311.163 76.4C311.163 76.2133 311.163 76.0133 311.163 75.8V75.16L310.923 72.24C310.897 72.1067 310.883 71.9867 310.883 71.88C310.883 71.7733 310.883 71.6667 310.883 71.56C310.883 71.3467 310.91 71.1067 310.963 70.84C310.697 69.88 310.563 69.1733 310.563 68.72C310.563 68.3467 310.67 68.08 310.883 67.92C311.097 67.7333 311.483 67.64 312.043 67.64C312.417 67.64 312.71 67.7733 312.923 68.04C313.137 68.28 313.403 68.5867 313.723 68.96L315.483 67.68C315.937 67.3333 316.35 67.1067 316.723 67C317.123 66.8933 317.51 66.84 317.883 66.84C318.443 66.84 319.03 66.9067 319.643 67.04L321.083 67.4ZM335.397 66.24C335.61 66.4 335.717 66.7067 335.717 67.16C335.717 67.96 335.383 68.36 334.717 68.36H334.557C334.557 68.36 334.357 68.3867 333.957 68.44C333.583 68.4667 333.157 68.5067 332.677 68.56C332.197 68.6133 331.73 68.68 331.277 68.76C330.85 68.8133 330.597 68.8667 330.517 68.92V69.32C330.517 69.6133 330.49 70.0133 330.437 70.52C330.383 71 330.357 71.44 330.357 71.84C330.357 71.9733 330.357 72.1067 330.357 72.24C330.383 72.3733 330.41 72.5067 330.437 72.64C330.33 72.96 330.277 73.4933 330.277 74.24C330.303 75.2533 330.33 76.0133 330.357 76.52C330.383 77 330.463 77.36 330.597 77.6C330.73 77.84 330.957 78.0267 331.277 78.16C331.597 78.2933 332.063 78.4933 332.677 78.76C333.317 78.9733 333.637 79.3467 333.637 79.88C333.637 80.2267 333.503 80.52 333.237 80.76C332.997 81 332.677 81.12 332.277 81.12C332.09 81.12 331.81 81.08 331.437 81C331.063 80.92 330.677 80.8133 330.277 80.68C329.903 80.52 329.557 80.3467 329.237 80.16C328.917 79.9467 328.703 79.72 328.597 79.48C328.277 78.7867 328.023 78.12 327.837 77.48C327.65 76.8133 327.557 76.12 327.557 75.4C327.557 74.6533 327.57 74.0933 327.597 73.72C327.623 73.3467 327.65 73.0533 327.677 72.84C327.703 72.6267 327.73 72.44 327.757 72.28C327.783 72.0933 327.797 71.84 327.797 71.52C327.797 71.3067 327.783 71.0933 327.757 70.88C327.757 70.64 327.757 70.4133 327.757 70.2C327.757 69.9067 327.757 69.6667 327.757 69.48C327.783 69.2667 327.81 69.0933 327.837 68.96C327.117 69.0133 326.05 69.2267 324.637 69.6C324.21 69.6 323.837 69.4933 323.517 69.28C323.197 69.0667 323.037 68.76 323.037 68.36C323.037 68.2533 323.077 68.1067 323.157 67.92C323.237 67.7333 323.37 67.56 323.557 67.4C323.77 67.2133 324.05 67.0667 324.397 66.96C324.77 66.8267 325.223 66.76 325.757 66.76H325.997C326.583 66.76 327.263 66.64 328.037 66.4C328.037 66.3733 328.037 66.2667 328.037 66.08C328.063 65.8667 328.077 65.64 328.077 65.4C328.103 65.1333 328.117 64.88 328.117 64.64C328.143 64.4 328.157 64.2267 328.157 64.12V63.92C328.183 63.6267 328.237 63.2133 328.317 62.68C328.397 62.12 328.517 61.5733 328.677 61.04C328.837 60.48 329.037 60 329.277 59.6C329.543 59.2 329.863 59 330.237 59C330.957 59 331.397 59.32 331.557 59.96C331.557 60.0133 331.517 60.2 331.437 60.52C331.383 60.84 331.317 61.2 331.237 61.6C331.157 62 331.077 62.3867 330.997 62.76C330.917 63.1333 330.877 63.3733 330.877 63.48C330.877 63.5333 330.863 63.68 330.837 63.92C330.81 64.16 330.783 64.4267 330.757 64.72C330.757 65.0133 330.743 65.3067 330.717 65.6C330.69 65.8933 330.677 66.1067 330.677 66.24C330.623 66.24 330.983 66.2 331.757 66.12C331.89 66.12 332.01 66.12 332.117 66.12C332.25 66.0933 332.37 66.08 332.477 66.08C332.557 66.08 332.623 66.0933 332.677 66.12C332.73 66.12 332.783 66.12 332.837 66.12C333.077 66.0933 333.303 66.08 333.517 66.08C333.73 66.0533 333.93 66.04 334.117 66.04C334.703 66.04 335.13 66.1067 335.397 66.24ZM344.464 62.76C344.464 63.2133 344.384 63.5867 344.224 63.88C344.091 64.1467 343.904 64.3467 343.664 64.48C343.424 64.6133 343.157 64.7067 342.864 64.76C342.597 64.7867 342.331 64.8 342.064 64.8C341.691 64.5333 341.371 64.24 341.104 63.92C340.864 63.5733 340.744 63.24 340.744 62.92C340.744 62.68 340.851 62.4133 341.064 62.12C341.277 61.8 341.464 61.4933 341.624 61.2L343.464 61.36C344.131 61.52 344.464 61.9867 344.464 62.76ZM343.104 68.56V68.72C343.104 68.96 343.064 69.36 342.984 69.92C342.931 70.4533 342.837 71.16 342.704 72.04C342.731 72.1733 342.744 72.36 342.744 72.6C342.744 72.76 342.691 73.12 342.584 73.68C342.477 74.24 342.424 74.72 342.424 75.12C342.424 75.2 342.424 75.28 342.424 75.36C342.451 75.44 342.464 75.5067 342.464 75.56C342.384 75.9333 342.344 76.4667 342.344 77.16C342.344 77.4533 342.344 77.7733 342.344 78.12C342.371 78.44 342.397 78.7867 342.424 79.16C342.211 79.9333 341.797 80.32 341.184 80.32C340.651 80.32 340.277 80.04 340.064 79.48C339.877 78.8933 339.784 78.1333 339.784 77.2C339.784 76.2667 339.811 75.4133 339.864 74.64C339.944 73.8667 340.037 73.1467 340.144 72.48C340.251 71.7867 340.357 71.1333 340.464 70.52C340.597 69.88 340.717 69.2533 340.824 68.64C341.091 68.24 341.464 68.04 341.944 68.04C342.451 68.04 342.837 68.2133 343.104 68.56ZM355.356 59.68C355.329 59.9733 355.276 60.3333 355.196 60.76C355.116 61.1867 355.022 61.6267 354.916 62.08C354.809 62.5067 354.702 62.92 354.596 63.32C354.516 63.72 354.449 64.04 354.396 64.28C354.422 64.4133 354.436 64.5333 354.436 64.64C354.436 64.7467 354.436 64.8667 354.436 65C354.436 65.2133 354.409 65.4933 354.356 65.84C354.302 66.1867 354.236 66.5467 354.156 66.92C354.076 67.2933 354.009 67.6533 353.956 68C353.902 68.32 353.876 68.5733 353.876 68.76C353.876 69.0267 353.876 69.4133 353.876 69.92C353.902 70.4267 353.916 70.9867 353.916 71.6C353.916 72.1867 353.889 72.8 353.836 73.44C353.782 74.08 353.689 74.6533 353.556 75.16C353.582 75.48 353.596 75.8 353.596 76.12C353.596 76.44 353.622 76.7867 353.676 77.16C353.756 77.5067 353.876 77.8933 354.036 78.32C354.222 78.7467 354.516 79.2 354.916 79.68C354.836 79.9733 354.582 80.2533 354.156 80.52C353.756 80.76 353.342 80.88 352.916 80.88C352.356 80.88 351.889 80.5733 351.516 79.96C351.169 79.32 350.996 78.16 350.996 76.48C350.996 76.1867 351.009 75.9333 351.036 75.72C351.089 75.48 351.116 75.2 351.116 74.88C351.116 74.2133 351.036 73.4133 350.876 72.48C350.982 72.2133 351.062 71.84 351.116 71.36C351.196 70.88 351.249 70.4133 351.276 69.96C351.302 69.48 351.316 69.08 351.316 68.76C351.342 68.4133 351.356 68.2533 351.356 68.28C351.356 68.2533 351.382 68.04 351.436 67.64C351.516 67.24 351.596 66.76 351.676 66.2C351.756 65.64 351.822 65.08 351.876 64.52C351.956 63.9333 351.996 63.4667 351.996 63.12V62.8C352.076 62.32 352.169 61.7867 352.276 61.2C352.382 60.6133 352.502 59.9733 352.636 59.28C352.876 58.88 353.276 58.68 353.836 58.68C354.529 58.68 355.036 59.0133 355.356 59.68ZM374.854 79.72C374.748 80.0133 374.534 80.2933 374.214 80.56C373.921 80.8267 373.628 80.96 373.334 80.96C372.988 80.96 372.721 80.8267 372.534 80.56C372.348 80.2667 372.214 79.9067 372.134 79.48C372.054 79.0267 372.001 78.52 371.974 77.96C371.948 77.4 371.934 76.84 371.934 76.28C371.828 76.0133 371.774 75.6667 371.774 75.24C371.774 75.0533 371.774 74.8533 371.774 74.64C371.801 74.4 371.814 74.2 371.814 74.04C371.814 73.1067 371.734 72.36 371.574 71.8C371.414 71.2133 371.201 70.76 370.934 70.44C370.694 70.12 370.428 69.9067 370.134 69.8C369.841 69.6933 369.561 69.64 369.294 69.64C368.814 69.64 368.321 69.7333 367.814 69.92C367.334 70.1067 366.881 70.32 366.454 70.56C366.054 70.8 365.708 71.0533 365.414 71.32C365.148 71.56 364.974 71.7467 364.894 71.88C364.814 72.1733 364.748 72.6 364.694 73.16C364.668 73.6933 364.641 74.32 364.614 75.04C364.588 75.76 364.561 76.5467 364.534 77.4C364.508 78.2267 364.481 79.08 364.454 79.96C364.374 80.4667 363.961 80.72 363.214 80.72C362.601 80.72 362.201 80.5067 362.014 80.08C361.828 79.6267 361.734 78.8667 361.734 77.8C361.734 77.5333 361.734 77.3467 361.734 77.24C361.761 77.1333 361.788 76.9467 361.814 76.68C361.868 76.4133 361.921 76 361.974 75.44C362.028 74.8533 362.094 73.9333 362.174 72.68C362.201 72.0933 362.228 71.5733 362.254 71.12C362.281 70.6667 362.281 70.2667 362.254 69.92C362.254 69.6267 362.254 69.3867 362.254 69.2C362.254 69.0133 362.241 68.8533 362.214 68.72C362.241 68.6933 362.268 68.4667 362.294 68.04C362.321 67.5867 362.361 67.0933 362.414 66.56C362.468 66.0267 362.521 65.52 362.574 65.04C362.628 64.5333 362.694 64.1867 362.774 64C362.774 63.8667 362.761 63.7467 362.734 63.64C362.734 63.5333 362.734 63.4133 362.734 63.28C362.734 62.8533 362.748 62.3333 362.774 61.72C362.828 61.08 362.921 60.48 363.054 59.92C363.188 59.36 363.388 58.88 363.654 58.48C363.921 58.08 364.294 57.88 364.774 57.88C365.548 57.88 365.948 58.2933 365.974 59.12C365.921 59.8933 365.828 60.7867 365.694 61.8C365.561 62.8133 365.388 64.1467 365.174 65.8C365.041 66.2 364.974 66.9333 364.974 68V68.72C365.028 68.6933 365.148 68.6133 365.334 68.48C365.521 68.3467 365.734 68.2 365.974 68.04C366.241 67.8533 366.521 67.6933 366.814 67.56C367.108 67.4 367.388 67.2933 367.654 67.24C368.268 67.1333 368.908 67.08 369.574 67.08C370.854 67.08 371.868 67.4533 372.614 68.2C373.388 68.92 373.948 70.1333 374.294 71.84C374.321 72.48 374.348 73 374.374 73.4C374.428 73.8 374.468 74.2533 374.494 74.76C374.548 75.24 374.601 75.8533 374.654 76.6C374.734 77.3467 374.801 78.3867 374.854 79.72ZM395.346 77C395.72 77.24 395.906 77.5333 395.906 77.88C395.906 78.2533 395.72 78.6133 395.346 78.96C394.973 79.3067 394.613 79.48 394.266 79.48C393.44 79.1867 392.72 78.64 392.106 77.84C391.52 77.04 391.12 76.1733 390.906 75.24C390.72 75.64 390.493 76.1467 390.226 76.76C389.986 77.3467 389.666 77.9067 389.266 78.44C388.866 78.9733 388.373 79.44 387.786 79.84C387.2 80.2133 386.466 80.4 385.586 80.4C385.133 80.4 384.533 80.32 383.786 80.16C382.96 79.5733 382.306 79.1067 381.826 78.76C381.373 78.3867 381.026 78.04 380.786 77.72C380.546 77.4 380.4 77.04 380.346 76.64C380.293 76.24 380.266 75.7067 380.266 75.04C380.266 74.48 380.346 73.8667 380.506 73.2C380.693 72.5067 380.946 71.8133 381.266 71.12C381.586 70.4267 381.986 69.7467 382.466 69.08C382.946 68.4133 383.506 67.8 384.146 67.24C385.32 66.84 386.24 66.5467 386.906 66.36C387.573 66.1733 388.026 66.08 388.266 66.08C388.8 65.4667 389.36 65.16 389.946 65.16C390.266 65.16 390.546 65.3467 390.786 65.72C391.026 66.0933 391.24 66.5867 391.426 67.2C391.64 67.7867 391.8 68.44 391.906 69.16C392.04 69.88 392.146 70.5733 392.226 71.24C392.306 71.3733 392.373 71.5333 392.426 71.72C392.48 71.88 392.533 72.0933 392.586 72.36L392.826 73.48C392.986 74.2533 393.293 74.92 393.746 75.48C394.2 76.04 394.733 76.5467 395.346 77ZM389.706 71.72C389.653 71.48 389.56 71.08 389.426 70.52C389.293 69.96 389.12 69.24 388.906 68.36C388.586 68.44 388.24 68.48 387.866 68.48C387.493 68.4533 387.093 68.52 386.666 68.68C386.24 68.84 385.773 69.1333 385.266 69.56C384.786 69.9867 384.293 70.6533 383.786 71.56C383.146 72.7333 382.826 73.9733 382.826 75.28C382.986 75.6267 383.133 75.9333 383.266 76.2C383.4 76.44 383.56 76.6667 383.746 76.88C383.96 77.0667 384.213 77.2533 384.506 77.44C384.8 77.6267 385.173 77.8267 385.626 78.04C386.026 77.96 386.36 77.8667 386.626 77.76C386.92 77.6533 387.173 77.4933 387.386 77.28C387.6 77.04 387.8 76.7467 387.986 76.4C388.173 76.0533 388.4 75.6 388.666 75.04C389.36 73.4933 389.706 72.3867 389.706 71.72ZM410.419 67.4C410.739 67.6133 410.899 67.9867 410.899 68.52C410.899 69.56 410.473 70.08 409.619 70.08C409.219 70.08 408.819 69.9867 408.419 69.8C408.019 69.6133 407.633 69.52 407.259 69.52C406.833 69.52 406.419 69.6 406.019 69.76C405.646 69.92 405.219 70.24 404.739 70.72L403.259 72.16V73C403.259 73.4 403.246 73.8533 403.219 74.36C403.219 74.84 403.206 75.36 403.179 75.92C403.206 76.9067 403.326 78.24 403.539 79.92C403.459 80.88 402.979 81.36 402.099 81.36C401.619 81.36 401.273 81.24 401.059 81C400.873 80.7333 400.739 80.3867 400.659 79.96C400.579 79.5333 400.539 79.0533 400.539 78.52C400.539 77.9867 400.513 77.44 400.459 76.88C400.486 76.7467 400.499 76.5867 400.499 76.4C400.499 76.2133 400.499 76.0133 400.499 75.8V75.16L400.259 72.24C400.233 72.1067 400.219 71.9867 400.219 71.88C400.219 71.7733 400.219 71.6667 400.219 71.56C400.219 71.3467 400.246 71.1067 400.299 70.84C400.033 69.88 399.899 69.1733 399.899 68.72C399.899 68.3467 400.006 68.08 400.219 67.92C400.433 67.7333 400.819 67.64 401.379 67.64C401.753 67.64 402.046 67.7733 402.259 68.04C402.473 68.28 402.739 68.5867 403.059 68.96L404.819 67.68C405.273 67.3333 405.686 67.1067 406.059 67C406.459 66.8933 406.846 66.84 407.219 66.84C407.779 66.84 408.366 66.9067 408.979 67.04L410.419 67.4Z" fill="black"/>
</svg>
